<svg width="20" height="20" viewBox="0 0 20 20" fill="none" xmlns="http://www.w3.org/2000/svg">
<path fill-rule="evenodd" clip-rule="evenodd" d="M5.00004 9.99996V17.5C5.00004 17.721 4.91224 17.9329 4.75596 18.0892C4.59968 18.2455 4.38772 18.3333 4.16671 18.3333C3.94569 18.3333 3.73373 18.2455 3.57745 18.0892C3.42117 17.9329 3.33337 17.721 3.33337 17.5V3.33329C3.33337 2.41663 4.08337 1.66663 5.00004 1.66663H10C10.9167 1.66663 11.6659 2.41663 11.6659 3.33329H15C15.4421 3.33329 15.866 3.50889 16.1786 3.82145C16.4911 4.13401 16.6667 4.55793 16.6667 4.99996V9.99996C16.6667 10.442 16.4911 10.8659 16.1786 11.1785C15.866 11.491 15.4421 11.6666 15 11.6666H10.8334C10.3918 11.666 9.9685 11.4901 9.65648 11.1776C9.34446 10.8651 9.16921 10.4416 9.16921 9.99996H5.00004ZM5.00004 3.33329V8.33329H10.8334V9.99996H15.0017V4.99996H10V3.33329H5.00004Z" fill="#212340"/>
</svg>
