<svg width="20" height="20" viewBox="0 0 20 20" fill="none" xmlns="http://www.w3.org/2000/svg">
<path d="M9.66667 17.7778C10.1522 17.7778 11.31 16.4589 12.3456 14.0978C13.3967 11.7044 14.1111 8.74889 14.1111 7.05889C14.1111 4.36 12.0922 2.22222 9.66667 2.22222C7.24111 2.22222 5.22222 4.36 5.22222 7.05889C5.22222 8.74778 5.93667 11.7044 6.98778 14.0978C8.02222 16.4589 9.18111 17.7778 9.66667 17.7778ZM9.66667 20C5.98444 20 3 10.9578 3 7.05889C3 3.16 5.98444 0 9.66667 0C13.3489 0 16.3333 3.16 16.3333 7.05889C16.3333 10.9578 13.3489 20 9.66667 20ZM9.66667 8.88889C10.256 8.88889 10.8213 8.65476 11.238 8.23802C11.6548 7.82127 11.8889 7.25604 11.8889 6.66667C11.8889 6.0773 11.6548 5.51207 11.238 5.09532C10.8213 4.67857 10.256 4.44444 9.66667 4.44444C9.0773 4.44444 8.51207 4.67857 8.09532 5.09532C7.67857 5.51207 7.44444 6.0773 7.44444 6.66667C7.44444 7.25604 7.67857 7.82127 8.09532 8.23802C8.51207 8.65476 9.0773 8.88889 9.66667 8.88889Z" fill="#212340"/>
</svg>
