<?xml version="1.0" standalone="no"?>
<!DOCTYPE svg PUBLIC "-//W3C//DTD SVG 20010904//EN"
 "http://www.w3.org/TR/2001/REC-SVG-20010904/DTD/svg10.dtd">
<svg version="1.0" xmlns="http://www.w3.org/2000/svg"
 width="1078.000000pt" height="1078.000000pt" viewBox="0 0 1078.000000 1078.000000"
 preserveAspectRatio="xMidYMid meet">
<metadata>
Created by potrace 1.14, written by Peter Selinger 2001-2017
</metadata>
<g transform="translate(0.000000,1078.000000) scale(0.100000,-0.100000)"
fill="#000000" stroke="none">
<path d="M0 5390 l0 -5390 5390 0 5390 0 0 5390 0 5390 -5390 0 -5390 0 0
-5390z m3335 1848 c-3 -13 -57 -338 -120 -723 -63 -385 -117 -710 -120 -722
l-5 -23 734 0 734 0 10 58 c5 31 61 366 123 745 l114 687 447 0 c344 0 448 -3
448 -12 0 -7 -137 -839 -305 -1849 -168 -1011 -305 -1842 -305 -1848 0 -8
-135 -11 -450 -11 -261 0 -450 4 -450 9 0 5 54 335 120 733 66 397 120 729
120 736 0 10 -150 12 -732 10 l-732 -3 -122 -740 c-68 -407 -123 -741 -124
-742 0 -2 -203 -3 -451 -3 l-451 0 6 28 c3 15 141 842 306 1837 165 996 302
1820 305 1833 l5 22 450 0 450 0 -5 -22z m4863 -6 c319 -61 536 -188 654 -383
126 -208 129 -508 7 -767 -130 -280 -380 -475 -716 -562 -32 -8 -43 -16 -43
-30 0 -17 7 -20 43 -20 62 0 190 -35 272 -74 275 -131 423 -414 385 -738 -33
-283 -135 -500 -325 -693 -226 -228 -499 -358 -866 -410 -86 -12 -268 -15
-1032 -15 l-929 0 6 28 c3 15 141 842 306 1837 165 996 302 1820 305 1833 l6
23 907 -4 c880 -4 910 -4 1020 -25z"/>
<path d="M7046 6513 c-12 -58 -126 -753 -126 -767 0 -24 535 -23 648 0 171 35
312 135 378 270 33 66 38 84 42 173 4 89 2 104 -20 152 -42 92 -122 155 -233
183 -47 13 -122 16 -371 16 l-312 0 -6 -27z"/>
<path d="M6815 5138 c-7 -21 -135 -836 -135 -859 l0 -21 358 5 c398 5 441 10
570 72 170 81 262 235 262 440 0 190 -124 322 -336 360 -107 19 -713 21 -719
3z"/>
</g>
</svg>
